<svg id="e1DMnA0TWOZ1" xmlns="http://www.w3.org/2000/svg" xmlns:xlink="http://www.w3.org/1999/xlink" viewBox="0 0 751.95058 555.86821" shape-rendering="geometricPrecision" text-rendering="geometricPrecision"><path d="M757.76513,579.76307h-404.93561c-7.512431-.008712-13.600288-6.096569-13.609-13.609v-329.72293c.008723-7.512427,6.096573-13.600277,13.609-13.609h404.93561c7.512431.008712,13.600288,6.096569,13.609,13.609v329.72292c-.008718,7.512431-6.096569,13.600287-13.609,13.60901Z" transform="translate(-224.025-172.066)" fill="#e6e6e6"/><path d="M362.0111,232.50875c-7.236543.008415-13.100745,5.872837-13.10889,13.10938v311.35687c.008564,7.236211,5.872679,13.100107,13.10889,13.1084h277.1626c67.634725-.076601,122.444399-54.886275,122.521-122.521v-201.94426c-.008117-7.236549-5.872331-13.100982-13.10888-13.10937Z" transform="translate(-224.025-172.066)" fill="#f0ce26"/><path d="M683.92467,372.53977h-73.42437c-3.188532-.003533-5.772467-2.587468-5.776-5.776v-36.54477c.003533-3.188532,2.587468-5.772467,5.776-5.776h73.42437c3.18853.003538,5.772462,2.58747,5.776,5.776c4.54336,12.93234,5.18859,25.22055,0,36.5448-.003549,3.188521-2.587479,5.772437-5.776,5.77597Z" transform="translate(-224.025-172.066)" fill="#e6e6e6"/><path d="M675.22623,369.00789h-62.38154c-2.708986-.003004-4.904302-2.198324-4.9073-4.90731v-31.04853c.002993-2.708986,2.198314-4.904307,4.9073-4.9073h62.38154c2.708982.002998,4.904301,2.198308,4.90731,4.90729c4.21,11.05759,4.8873,21.521,0,31.04855-.003009,2.708983-2.198327,4.904296-4.90731,4.9073Z" transform="translate(-224.025-172.066)" fill="#f0ce26"/><path d="M671.86211,391.683h-49.46179c-3.029852.004386-5.489939-2.44757-5.495585-5.477419s2.445288-5.490956,5.475135-5.497861h49.48224c3.026649.005778,5.477174,2.460985,5.477174,5.48764s-2.450525,5.481862-5.477174,5.48764Z" transform="translate(-224.025-172.066)" fill="#e6e6e6"/><path d="M638.606,336.5284c-1.184553.004134-2.143324.964272-2.14577,2.14883v23.26065c-.000153.764429.406507,1.471179,1.067474,1.855205s1.476354.387292,2.140376.008575l20.53095-11.70658c.671774-.382352,1.085797-1.096643,1.083675-1.869604s-.420061-1.484969-1.093925-1.863626l-20.52993-11.55507c-.321106-.181948-.683778-.277841-1.05285-.27838Z" transform="translate(-224.025-172.066)" fill="#e6e6e6"/><path d="M938.139,683.43018c-2.316768-2.945924-6.193382-4.185024-9.78931-3.129l-.3844.11414-3.44726,13.4588c-.51648-2.00592-1.62152-6.53418-2.31818-10.96643l-.06006-.36639-.34228.15014c-3.603905,1.592904-6.991973,3.635035-10.08362,6.07782-11.086218,8.892739-17.699623,22.211775-18.08328,36.41874l-.006.25824-.006.16217.45643-.16217l9.79534-3.50129c8.783147.773996,17.446601-2.456605,23.5785-8.79242c3.95776-4.174,6.67236-9.54309,9.29681-14.738.76874-1.51343,1.55548-3.075,2.36023-4.57642c1.836863-3.340511,1.453878-7.462965-.96692-10.40793Z" transform="translate(-224.025-172.066)" fill="#f2f2f2"/><path d="M687.99486,340.212c.397892,2.062467,1.688901,3.842758,3.525635,4.861825s4.030517,1.172226,5.991035.418265l29.275,34.05588l3.7063-12.572-29.0235-31.15741c-1.518056-3.281891-5.250953-4.909574-8.688804-3.788644s-5.493884,4.636125-4.785686,8.182074Z" transform="translate(-224.025-172.066)" fill="#ffb8b8"/><polygon points="581.955,545.239 572.267,545.239 567.658,507.87 581.957,507.87 581.955,545.239" fill="#ffb6b6"/><path d="M805.72118,714.14063l-10.344-4.20746-.2962-.12152-5.71119,4.329c-6.714863.001126-12.158054,5.444317-12.15918,12.15918v.3949h31.23713v-12.5541Z" transform="translate(-224.025-172.066)" fill="#2f2e41"/><polygon points="651.067,545.239 641.379,545.239 636.77,507.87 651.069,507.87 651.067,545.239" fill="#ffb6b6"/><path d="M874.83324,714.14063l-10.344-4.20746-.2962-.12152-5.71119,4.329c-6.714863.001126-12.158054,5.444317-12.15918,12.15918v.3949h31.23713v-12.5541Z" transform="translate(-224.025-172.066)" fill="#2f2e41"/><path d="M852.22649,494.15522c0,0,12.15161,12.64194,12.15161,23.02936s-3.0379,24.65,0,27.7716s6.83527,6.919,2.27845,11.47583-6.83527,6.83527-3.79737,9.87317s1.51892,56.201,1.51892,56.201l15.9489,71.39043h-20.09312l-25.47522-71.3905-6.83527-59.23889-22.10547,56.96045l2.44068,74.28155-21.00592-.61273-8.69507-78.98517c0,0,12.911-75.134,10.63263-77.05957s0-5.81268,0-5.81268l6.0758-28.77026Z" transform="translate(-225.808916-170.282084)" fill="#2f2e41"/><path d="M828.435,404.52228c0,0,4.1319-16.28152-14.90375-20.94961s-73.44934-10.66538-73.44934-10.66538l-27.499-29.17993-9.318,13.53205l30.82721,38.30816l73.04273,15.00327Z" transform="translate(-224.025-172.066)" fill="#3f3d56"/><path d="M707.79375,356.262c.853873-1.106464,1.522103-2.344439,1.97852-3.66544l3.9436-9.69036-1.02374-.04267c-2.865162-.539072-5.824214.169908-8.133981,1.948877s-3.750795,4.45891-3.961169,7.366743c-.129342,1.243546.093931,2.49839.64428,3.621.568569,1.128931,1.643494,1.917208,2.89112,2.12015c1.417542.075707,2.783313-.542875,3.66137-1.6583Z" transform="translate(-224.025-172.066)" fill="#e6e6e6"/><path d="M791.388,507.149l-2.27844,16.5163c0,0,4.55682,4.89374,6.83527,4.282s10.63263-4.17267,10.63263-4.17267s9.87316,5.39612,15.18945,6.00782s33.41681-3.0586,34.17627-4.89374s9.58679-9.01886,9.58679-9.01886l-3.511-20.95523Z" transform="translate(-224.025-172.066)" fill="#e6e6e6"/><path d="M865.38341,449.36912c0,0-1.929,15.92614-.41009,17.39193c1.519,1.45816-1.51892,10.6858-4.55682,16.76157s2.27844,6.83527,2.27844,11.39209s2.27838,21.26523,2.27838,21.26523-23.54364,1.51892-27.341-2.27844-9.87317-.75946-18.22736,7.59472-26.498,1.51892-30.29541-2.27844s2.95435-17.46786,5.23279-20.11841-2.19489.4177-4.47333-7.98205s2.19489-7.59473,5.99225-11.39209s0-10.63263-3.0379-17.46787-.75946-57.71991-.75946-69.87149s16.70837-13.6705,16.70837-13.6705l6.615-8.31625l4.86066-6.11374l9.52374-.37973.25061-.0076l9.2124-.37213l4.47333,5.21l9.87317,11.49841l11.39209,2.27841c9.11371,3.03791,6.83526,22.02472,6.83526,22.02472Z" transform="translate(-215.105421-172.066)" fill="#3f3d56"/><circle r="19.5225" transform="translate(605.277 169.023)" fill="#ffb6b6"/><path d="M851.93755,334.52131c-5.36963-3.29306-4.68152-11.90341-9.85528-14.91013-5.219093-3.0086-11.579369-3.27572-17.03235-.71533-3.644-1.559-8.00983-.31485-10.92505,2.50037s-4.49341,6.96829-4.95856,11.145c-.335999,4.196437-.034671,8.419561.89374,12.52578q.43423-2.47467.86865-4.94937l15.39032-3.36368q-2.04373,1.83613-4.0874,3.67228c6.970283,1.586825,14.283631.443122,20.43665-3.196c6.69982,3.00354,5.48553,9.749-.39588,18.701c2.27869,3.79732,15.78339-17.65772,9.66516-21.40992Z" transform="translate(-224.025-172.066)" fill="#2f2e41"/><path d="M843.70812,368.73591c-.043739.035375-.08938.068331-.13672.09872-1.608982.959526-3.450606,1.458682-5.32391,1.443-2.451725.204555-4.886116-.558759-6.78211-2.12656-.99493-.94174-4.95178,1.04806-7.54913,2.14932-2.724365,1.129124-5.779157,1.164486-8.52893.09873l4.86066-6.11374l8.01074-1.77616h2l8.97607,1.0167Z" transform="translate(-224.025-172.066)" fill="#e6e6e6"/><path d="M974.79082,727.62678l-271.75.30731c-.657592.003421-1.193449-.526888-1.19687-1.18448s.526888-1.193449,1.18448-1.19687h.01239l271.75-.30731c.655259.003289,1.184713.535408,1.184713,1.190675s-.529454,1.187386-1.184713,1.190675Z" transform="translate(-224.025-172.066)" fill="#cacaca"/><polygon points="425.383,155.694 423.383,155.694 423.383,12.651 502.04,12.651 502.04,14.651 425.383,14.651 425.383,155.694" fill="#3f3d56"/><path d="M787.2373,172.06589h-53c-7.179702,0-13,5.820298-13,13s5.820298,13,13,13h53c7.179702,0,13-5.820298,13-13s-5.820298-13-13-13Z" transform="translate(-224.025-172.066)" fill="#6c63ff"/><circle r="11.9459" transform="translate(423.223 156.834)" fill="#6c63ff"/><path d="M503.29653,373.78815L555.70269,361.661l15.04248-3.481c1.88165-.43542,1.1-3.33228-.78247-2.89667L517.55651,367.4105l-15.04251,3.481c-1.88162.43542-1.1,3.33227.78247,2.89666Z" transform="translate(-224.025-172.066)" fill="#f2f2f2"/><path d="M557.41277,342.20582l28.05487,12.90539c.957403.331099,1.854195.816586,2.65485,1.43723.77435.75848.21069,1.488-.42139,2.14868-1.887978,1.763293-3.882188,3.409289-5.97143,4.92874l-11.9524,9.71732c-1.50042,1.21985.61683,3.34839,2.10315,2.14l10.41016-8.46347l5.20508-4.23172c1.47467-1.19891,3.26971-2.42236,3.8623-4.33227c1.24506-4.01252-3.66839-5.60794-6.39892-6.864l-12.21747-5.62008-13.80115-6.34864c-1.73962-.80023-3.28052,1.77649-1.52765,2.5828Z" transform="translate(-224.025-172.066)" fill="#f2f2f2"/><path d="M944.56573,440.44939c-4.998-3.38851-11.06985-4.64753-17.00483-5.07487-6.745816-.367084-13.506817-.359126-20.25175.02384q-10.50974.41631-20.97673,1.521-10.45221,1.1062-20.81651,2.89876c-6.18635.963187-12.308127,2.303157-18.33117,4.01243-5.701234,1.577808-11.071158,4.170952-15.85191,7.65491-4.196662,3.156212-7.423939,7.42623-9.31515,12.3249-1.856553,4.594279-2.172178,9.666945-.89946,14.45593.678164,2.326278,1.839262,4.483401,3.40751,6.33058c1.812749,2.026554,3.960114,3.726691,6.34844,5.02626c4.95806,2.83121,10.57553,4.53327,15.06,8.1579c1.182492.948121,2.260357,2.019807,3.21526,3.19683.648513.910671,1.544976,1.615883,2.58274,2.03174c2.010814.702707,4.246935.127026,5.66844-1.45932.898272-1.228959,1.647116-2.560439,2.23074-3.96636l2.36571-4.56409c.158243-.399266.356387-.781537.59142-1.141.17725-.21138-.13962.00446-.0792-.05121.03327-.03062.10183-.02968.13984-.05413.195665-.097345.400193-.175748.61079-.23414q3.28248-1.25142,6.59424-2.42453c8.14921-2.90438,16.39663-5.58147,24.77429-7.74963c4.311001-1.156394,8.683223-2.071111,13.09624-2.73988c5.7157-.81412,11.51805-.71959,17.25972-1.27609c6.18185-.59918,12.56047-1.85036,17.86173-5.25438c4.383489-2.663734,7.760278-6.705471,9.602-11.4928.798384-2.281516,1.072144-4.71367.80092-7.11558-.68864-5.43461-4.23941-10.0242-8.68332-13.03707Z" transform="translate(-224.025-172.066)" fill="#e6e6e6"/><path d="M924.87679,449.03266L851.2757,462.60747c-.572659.109247-1.16003-.095975-1.540051-.53808s-.494706-1.053635-.300697-1.603392.667108-.953859,1.240438-1.059528l.0096-.00177l73.60108-13.5748c.572122-.105522,1.157079.102195,1.534524.544906s.490037,1.053157.29536,1.60139-.667042.950962-1.239164,1.056484Z" transform="translate(-224.025-172.066)" fill="#e6e6e6"/><path d="M926.68973,458.8622L853.08864,472.437c-.572607.109129-1.159872-.096136-1.539819-.538209s-.494619-1.053517-.30067-1.603219.666931-.953807,1.240169-1.059572l.00961-.00177l73.60108-13.5748c.572122-.105522,1.157079.102195,1.534524.544906s.490037,1.053157.29536,1.60139-.667042.950962-1.239164,1.056484Z" transform="translate(-224.025-172.066)" fill="#e6e6e6"/><path d="M863.47868,480.68443l-8.57714,1.58194c-.882752.159516-1.728265-.42493-1.890969-1.3071s.418682-1.729789,1.300259-1.89568l8.57714-1.58195c.883201-.160476,1.729699.424048,1.892514,1.306821s-.419465,1.730816-1.301804,1.895969Z" transform="translate(-224.025-172.066)" fill="#e6e6e6"/><circle r="6.9213" transform="matrix(.983413-.181378 0.181378 0.983413 631.984651 342.676366)" fill="#d1d3d4"/><path d="M476.36571,370.68839h-62.86621c-6.076483-.007147-11.000663-4.931327-11.00781-11.00781v-41.43258c.007153-6.07648,4.93133-11.000657,11.00781-11.00781h62.86621c6.076484.007147,11.000667,4.931326,11.00782,11.00781v41.43262c-.007169,6.076471-4.931349,11.000629-11.00782,11.00777Z" transform="translate(-224.025-172.066)" fill="#e6e6e6"/><path d="M469.45737,368.45623h-54.71347c-5.288462-.006221-9.574054-4.291818-9.58027-9.58028v-36.05944c.006216-5.288462,4.291808-9.574059,9.58027-9.58028h54.71347c5.288463.006221,9.574059,4.291817,9.58028,9.58028v36.05949c-.006249,5.288444-4.291836,9.574009-9.58028,9.58023Z" transform="translate(-224.025-172.066)" fill="#f0ce26"/><path d="M485.22051,408.01664h-80.66568c-1.037819-.002392-1.877872-.844383-1.877872-1.882205s.840053-1.879813,1.877872-1.882205h80.66568c1.037819.002392,1.877872.844383,1.877872,1.882205s-.840053,1.879813-1.877872,1.882205Z" transform="translate(-224.025-172.066)" fill="#e6e6e6"/><path d="M485.22051,397.26121h-80.66568c-1.037819-.002392-1.877872-.844383-1.877872-1.882205s.840053-1.879813,1.877872-1.882205h80.66568c1.037819.002392,1.877872.844383,1.877872,1.882205s-.840053,1.879813-1.877872,1.882205Z" transform="translate(-224.025-172.066)" fill="#e6e6e6"/><path d="M485.22051,418.77207h-80.66568c-1.03951,0-1.8822-.84269-1.8822-1.8822s.84269-1.8822,1.8822-1.8822h80.66568c1.03951,0,1.8822.84269,1.8822,1.8822s-.84269,1.8822-1.8822,1.8822Z" transform="translate(-224.025-172.066)" fill="#e6e6e6"/><path d="M485.22051,429.52747h-80.66568c-1.03951,0-1.8822-.84269-1.8822-1.8822s.84269-1.8822,1.8822-1.8822h80.66568c1.03951,0,1.8822.84269,1.8822,1.8822s-.84269,1.8822-1.8822,1.8822Z" transform="translate(-224.025-172.066)" fill="#e6e6e6"/><path d="M485.22051,440.2829h-80.66568c-1.03951,0-1.8822-.84269-1.8822-1.8822s.84269-1.8822,1.8822-1.8822h80.66568c1.03951,0,1.8822.84269,1.8822,1.8822s-.84269,1.8822-1.8822,1.8822Z" transform="translate(-224.025-172.066)" fill="#e6e6e6"/><path d="M485.22051,451.03834h-80.66568c-1.037819-.002392-1.877872-.844383-1.877872-1.882205s.840053-1.879813,1.877872-1.882205h80.66568c1.037819.002392,1.877872.844383,1.877872,1.882205s-.840053,1.879813-1.877872,1.882205Z" transform="translate(-224.025-172.066)" fill="#e6e6e6"/><polygon points="216.83,254.306 218.83,254.306 218.83,331.349 74.173,331.349 74.173,329.349 216.83,329.349 216.83,254.306" fill="#3f3d56"/><path d="M237.02471,516.06593h53c7.179702,0,13-5.820298,13-13s-5.820298-13-13-13h-53c-7.179702,0-13,5.820298-13,13s5.820298,13,13,13Z" transform="translate(-224.025-172.066)" fill="#6c63ff"/><circle r="11.9459" transform="translate(219.223 248.166)" fill="#6c63ff"/><path d="M504.99245,423.551c17.53861,3.72754,13.07724,4.45508,30.61582,8.18259l15.10266,3.20984c1.88916.40152,2.40649-2.554.51648-2.95572-17.53864-3.72754-13.07721-4.45508-30.61585-8.18259l-15.10269-3.20981c-1.88916-.40152-2.40652,2.554-.51645,2.95569Z" transform="translate(-224.025-172.066)" fill="#f2f2f2"/><path d="M545.38848,414.82871l19.96075,23.56253c.727439.705038,1.334641,1.524331,1.79755,2.42542.38074,1.01486-.4386,1.43741-1.29083,1.76864-2.456698.799023-4.960037,1.446803-7.49595,1.9397l-14.9411,3.74826c-1.87561.47052-.85767,3.29495,1.0003,2.82883l13.01325-3.26459l6.50659-1.63229c1.84344-.46247,3.98749-.81165,5.33246-2.29151c2.82568-3.109-.95142-6.6333-2.89417-8.9266l-8.69252-10.2611-9.8194-11.59125c-1.23773-1.46106-3.724.22183-2.47693,1.694Z" transform="translate(-224.025-172.066)" fill="#f2f2f2"/><circle r="27.78" transform="translate(384.653 317.695)" fill="#e6e6e6"/><circle r="21.1193" transform="translate(381.945 320.814)" fill="#f0ce26"/><path d="M602.18015,507.33826c-.972639.000007-1.888484-.458063-2.47186-1.23633l-7.5788-10.10522c-1.024612-1.364784-.748849-3.301773.615935-4.326385s3.301773-.748849,4.326385.615935l.00189.0025l4.95832,6.6106l12.7348-19.10193c.611734-.920204,1.668259-1.443744,2.770985-1.373106s2.083817.724702,2.573141,1.715437.412406,2.16735-.201736,3.085949l-15.15759,22.73645c-.556384.834403-1.482971,1.34705-2.48547,1.37512-.02869.00043-.05731.00098-.086.00098Z" transform="translate(-224.025-172.066)" fill="#e6e6e6"/><path d="M868.07543,518.37861c1.810664-1.064688,3.05674-2.876701,3.402938-4.948466s-.243046-4.190465-1.609178-5.786004l22.30573-38.978-13.08759.71116-19.6582,37.7717c-2.585007,2.528197-2.87054,6.590264-.664632,9.455227s6.206009,3.627261,9.310992,1.774393Z" transform="translate(-224.025-172.066)" fill="#ffb8b8"/><path d="M842.95141,381.75327c0,0,23.62439-7.59472,29.70013,10.63263s26.5008,67.59311,26.5008,67.59311l-21.944,44.8089-9.87316-10.63263l10.55194-31.13843-30.37891-45.56836Z" transform="translate(-224.025-172.066)" fill="#3f3d56"/><path d="M877.96093,500.21183c-.711111-1.203188-1.613166-2.282719-2.67084-3.19632l-7.538-7.25491-.41913.935c-1.562767,2.461193-2.001222,5.472229-1.205248,8.276892s2.750752,5.13649,5.373398,6.409848c1.107013.581095,2.355222.8389,3.60187.74393c1.259273-.109546,2.389869-.815678,3.04083-1.8992.595778-1.288485.52756-2.786248-.18288-4.01524Z" transform="translate(-224.025-172.066)" fill="#e6e6e6"/><polygon points="384.412,355.068 382.412,355.068 382.412,432.111 450.069,432.111 450.069,430.111 384.412,430.111 384.412,355.068" fill="#3f3d56"/><path d="M748.26657,603.82805c-.006863-7.176857-5.823143-12.993137-13-13h-53c-7.179702,0-13,5.820298-13,13s5.820298,13,13,13h53c7.176855-.006869,12.993131-5.823145,13-13Z" transform="translate(-224.025-172.066)" fill="#6c63ff"/><circle r="11.9459" transform="translate(382.019 348.928)" fill="#6c63ff"/><path id="e1DMnA0TWOZ55" d="M357.69682,164.437642L115.19552,152.377L365.51686,324.659773L307.28355,211.965994v0l50.41327-47.528352Z" transform="translate(355.02387 2.173587)" fill="none" stroke="#3f5787" stroke-width="1.503901"/>
<script><![CDATA[
!function(t,n){"object"==typeof exports&&"undefined"!=typeof module?module.exports=n():"function"==typeof __SVGATOR_DEFINE__&&__SVGATOR_DEFINE__.amd?__SVGATOR_DEFINE__(n):((t="undefined"!=typeof globalThis?globalThis:t||self).__SVGATOR_PLAYER__=t.__SVGATOR_PLAYER__||{},t.__SVGATOR_PLAYER__["5c7f360c"]=n())}(this,(function(){"use strict";function t(t,n){var e=Object.keys(t);if(Object.getOwnPropertySymbols){var r=Object.getOwnPropertySymbols(t);n&&(r=r.filter((function(n){return Object.getOwnPropertyDescriptor(t,n).enumerable}))),e.push.apply(e,r)}return e}function n(n){for(var e=1;e<arguments.length;e++){var r=null!=arguments[e]?arguments[e]:{};e%2?t(Object(r),!0).forEach((function(t){o(n,t,r[t])})):Object.getOwnPropertyDescriptors?Object.defineProperties(n,Object.getOwnPropertyDescriptors(r)):t(Object(r)).forEach((function(t){Object.defineProperty(n,t,Object.getOwnPropertyDescriptor(r,t))}))}return n}function e(t){return(e="function"==typeof Symbol&&"symbol"==typeof Symbol.iterator?function(t){return typeof t}:function(t){return t&&"function"==typeof Symbol&&t.constructor===Symbol&&t!==Symbol.prototype?"symbol":typeof t})(t)}function r(t,n){if(!(t instanceof n))throw new TypeError("Cannot call a class as a function")}function i(t,n){for(var e=0;e<n.length;e++){var r=n[e];r.enumerable=r.enumerable||!1,r.configurable=!0,"value"in r&&(r.writable=!0),Object.defineProperty(t,r.key,r)}}function u(t,n,e){return n&&i(t.prototype,n),e&&i(t,e),t}function o(t,n,e){return n in t?Object.defineProperty(t,n,{value:e,enumerable:!0,configurable:!0,writable:!0}):t[n]=e,t}function a(t){return(a=Object.setPrototypeOf?Object.getPrototypeOf:function(t){return t.__proto__||Object.getPrototypeOf(t)})(t)}function l(t,n){return(l=Object.setPrototypeOf||function(t,n){return t.__proto__=n,t})(t,n)}function s(){if("undefined"==typeof Reflect||!Reflect.construct)return!1;if(Reflect.construct.sham)return!1;if("function"==typeof Proxy)return!0;try{return Boolean.prototype.valueOf.call(Reflect.construct(Boolean,[],(function(){}))),!0}catch(t){return!1}}function f(t,n,e){return(f=s()?Reflect.construct:function(t,n,e){var r=[null];r.push.apply(r,n);var i=new(Function.bind.apply(t,r));return e&&l(i,e.prototype),i}).apply(null,arguments)}function c(t,n){if(n&&("object"==typeof n||"function"==typeof n))return n;if(void 0!==n)throw new TypeError("Derived constructors may only return object or undefined");return function(t){if(void 0===t)throw new ReferenceError("this hasn't been initialised - super() hasn't been called");return t}(t)}function h(t,n,e){return(h="undefined"!=typeof Reflect&&Reflect.get?Reflect.get:function(t,n,e){var r=function(t,n){for(;!Object.prototype.hasOwnProperty.call(t,n)&&null!==(t=a(t)););return t}(t,n);if(r){var i=Object.getOwnPropertyDescriptor(r,n);return i.get?i.get.call(e):i.value}})(t,n,e||t)}function v(t){return function(t){if(Array.isArray(t))return y(t)}(t)||function(t){if("undefined"!=typeof Symbol&&null!=t[Symbol.iterator]||null!=t["@@iterator"])return Array.from(t)}(t)||function(t,n){if(!t)return;if("string"==typeof t)return y(t,n);var e=Object.prototype.toString.call(t).slice(8,-1);"Object"===e&&t.constructor&&(e=t.constructor.name);if("Map"===e||"Set"===e)return Array.from(t);if("Arguments"===e||/^(?:Ui|I)nt(?:8|16|32)(?:Clamped)?Array$/.test(e))return y(t,n)}(t)||function(){throw new TypeError("Invalid attempt to spread non-iterable instance.\nIn order to be iterable, non-array objects must have a [Symbol.iterator]() method.")}()}function y(t,n){(null==n||n>t.length)&&(n=t.length);for(var e=0,r=new Array(n);e<n;e++)r[e]=t[e];return r}Number.isInteger||(Number.isInteger=function(t){return"number"==typeof t&&isFinite(t)&&Math.floor(t)===t}),Number.EPSILON||(Number.EPSILON=2220446049250313e-31);var g=d(Math.pow(10,-6));function d(t){var n=arguments.length>1&&void 0!==arguments[1]?arguments[1]:6;if(Number.isInteger(t))return t;var e=Math.pow(10,n);return Math.round((+t+Number.EPSILON)*e)/e}function p(t,n){var e=arguments.length>2&&void 0!==arguments[2]?arguments[2]:g;return Math.abs(t-n)<e}var m=Math.PI/180;function b(t){return t}function w(t,n,e){var r=1-e;return 3*e*r*(t*r+n*e)+e*e*e}function A(){var t=arguments.length>0&&void 0!==arguments[0]?arguments[0]:0,n=arguments.length>1&&void 0!==arguments[1]?arguments[1]:0,e=arguments.length>2&&void 0!==arguments[2]?arguments[2]:1,r=arguments.length>3&&void 0!==arguments[3]?arguments[3]:1;return t<0||t>1||e<0||e>1?null:p(t,n)&&p(e,r)?b:function(i){if(i<=0)return t>0?i*n/t:0===n&&e>0?i*r/e:0;if(i>=1)return e<1?1+(i-1)*(r-1)/(e-1):1===e&&t<1?1+(i-1)*(n-1)/(t-1):1;for(var u,o=0,a=1;o<a;){var l=w(t,e,u=(o+a)/2);if(p(i,l))break;l<i?o=u:a=u}return w(n,r,u)}}function _(){return 1}function x(t){return 1===t?1:0}function k(){var t=arguments.length>0&&void 0!==arguments[0]?arguments[0]:1,n=arguments.length>1&&void 0!==arguments[1]?arguments[1]:0;if(1===t){if(0===n)return x;if(1===n)return _}var e=1/t;return function(t){return t>=1?1:(t+=n*e)-t%e}}var S=Math.sin,O=Math.cos,j=Math.acos,E=Math.asin,M=Math.tan,P=Math.atan2,I=Math.PI/180,R=180/Math.PI,F=Math.sqrt,N=function(){function t(){var n=arguments.length>0&&void 0!==arguments[0]?arguments[0]:1,e=arguments.length>1&&void 0!==arguments[1]?arguments[1]:0,i=arguments.length>2&&void 0!==arguments[2]?arguments[2]:0,u=arguments.length>3&&void 0!==arguments[3]?arguments[3]:1,o=arguments.length>4&&void 0!==arguments[4]?arguments[4]:0,a=arguments.length>5&&void 0!==arguments[5]?arguments[5]:0;r(this,t),this.m=[n,e,i,u,o,a],this.i=null,this.w=null,this.s=null}return u(t,[{key:"determinant",get:function(){var t=this.m;return t[0]*t[3]-t[1]*t[2]}},{key:"isIdentity",get:function(){if(null===this.i){var t=this.m;this.i=1===t[0]&&0===t[1]&&0===t[2]&&1===t[3]&&0===t[4]&&0===t[5]}return this.i}},{key:"point",value:function(t,n){var e=this.m;return{x:e[0]*t+e[2]*n+e[4],y:e[1]*t+e[3]*n+e[5]}}},{key:"translateSelf",value:function(){var t=arguments.length>0&&void 0!==arguments[0]?arguments[0]:0,n=arguments.length>1&&void 0!==arguments[1]?arguments[1]:0;if(!t&&!n)return this;var e=this.m;return e[4]+=e[0]*t+e[2]*n,e[5]+=e[1]*t+e[3]*n,this.w=this.s=this.i=null,this}},{key:"rotateSelf",value:function(){var t=arguments.length>0&&void 0!==arguments[0]?arguments[0]:0;if(t%=360){var n=S(t*=I),e=O(t),r=this.m,i=r[0],u=r[1];r[0]=i*e+r[2]*n,r[1]=u*e+r[3]*n,r[2]=r[2]*e-i*n,r[3]=r[3]*e-u*n,this.w=this.s=this.i=null}return this}},{key:"scaleSelf",value:function(){var t=arguments.length>0&&void 0!==arguments[0]?arguments[0]:1,n=arguments.length>1&&void 0!==arguments[1]?arguments[1]:1;if(1!==t||1!==n){var e=this.m;e[0]*=t,e[1]*=t,e[2]*=n,e[3]*=n,this.w=this.s=this.i=null}return this}},{key:"skewSelf",value:function(t,n){if(n%=360,(t%=360)||n){var e=this.m,r=e[0],i=e[1],u=e[2],o=e[3];t&&(t=M(t*I),e[2]+=r*t,e[3]+=i*t),n&&(n=M(n*I),e[0]+=u*n,e[1]+=o*n),this.w=this.s=this.i=null}return this}},{key:"resetSelf",value:function(){var t=arguments.length>0&&void 0!==arguments[0]?arguments[0]:1,n=arguments.length>1&&void 0!==arguments[1]?arguments[1]:0,e=arguments.length>2&&void 0!==arguments[2]?arguments[2]:0,r=arguments.length>3&&void 0!==arguments[3]?arguments[3]:1,i=arguments.length>4&&void 0!==arguments[4]?arguments[4]:0,u=arguments.length>5&&void 0!==arguments[5]?arguments[5]:0,o=this.m;return o[0]=t,o[1]=n,o[2]=e,o[3]=r,o[4]=i,o[5]=u,this.w=this.s=this.i=null,this}},{key:"recomposeSelf",value:function(){var t=arguments.length>0&&void 0!==arguments[0]?arguments[0]:null,n=arguments.length>1&&void 0!==arguments[1]?arguments[1]:null,e=arguments.length>2&&void 0!==arguments[2]?arguments[2]:null,r=arguments.length>3&&void 0!==arguments[3]?arguments[3]:null,i=arguments.length>4&&void 0!==arguments[4]?arguments[4]:null;return this.isIdentity||this.resetSelf(),t&&(t.x||t.y)&&this.translateSelf(t.x,t.y),n&&this.rotateSelf(n),e&&(e.x&&this.skewSelf(e.x,0),e.y&&this.skewSelf(0,e.y)),!r||1===r.x&&1===r.y||this.scaleSelf(r.x,r.y),i&&(i.x||i.y)&&this.translateSelf(i.x,i.y),this}},{key:"decompose",value:function(){var t=arguments.length>0&&void 0!==arguments[0]?arguments[0]:0,n=arguments.length>1&&void 0!==arguments[1]?arguments[1]:0,e=this.m,r=e[0]*e[0]+e[1]*e[1],i=[[e[0],e[1]],[e[2],e[3]]],u=F(r);if(0===u)return{origin:{x:d(e[4]),y:d(e[5])},translate:{x:d(t),y:d(n)},scale:{x:0,y:0},skew:{x:0,y:0},rotate:0};i[0][0]/=u,i[0][1]/=u;var o=e[0]*e[3]-e[1]*e[2]<0;o&&(u=-u);var a=i[0][0]*i[1][0]+i[0][1]*i[1][1];i[1][0]-=i[0][0]*a,i[1][1]-=i[0][1]*a;var l=F(i[1][0]*i[1][0]+i[1][1]*i[1][1]);if(0===l)return{origin:{x:d(e[4]),y:d(e[5])},translate:{x:d(t),y:d(n)},scale:{x:d(u),y:0},skew:{x:0,y:0},rotate:0};i[1][0]/=l,i[1][1]/=l,a/=l;var s=0;return i[1][1]<0?(s=j(i[1][1])*R,i[0][1]<0&&(s=360-s)):s=E(i[0][1])*R,o&&(s=-s),a=P(a,F(i[0][0]*i[0][0]+i[0][1]*i[0][1]))*R,o&&(a=-a),{origin:{x:d(e[4]),y:d(e[5])},translate:{x:d(t),y:d(n)},scale:{x:d(u),y:d(l)},skew:{x:d(a),y:0},rotate:d(s)}}},{key:"clone",value:function(){var t=this.m;return new this.constructor(t[0],t[1],t[2],t[3],t[4],t[5])}},{key:"toString",value:function(){var t=arguments.length>0&&void 0!==arguments[0]?arguments[0]:" ";if(null===this.s){var n=this.m.map((function(t){return d(t)}));1===n[0]&&0===n[1]&&0===n[2]&&1===n[3]?this.s="translate("+n[4]+t+n[5]+")":this.s="matrix("+n.join(t)+")"}return this.s}}],[{key:"create",value:function(t){return t?Array.isArray(t)?f(this,v(t)):t instanceof this?t.clone():(new this).recomposeSelf(t.origin,t.rotate,t.skew,t.scale,t.translate):new this}}]),t}();function T(t,n,e){return t>=.5?e:n}function B(t,n,e){return 0===t||n===e?n:t*(e-n)+n}function q(t,n,e){var r=B(t,n,e);return r<=0?0:r}function D(t,n,e){var r=B(t,n,e);return r<=0?0:r>=1?1:r}function L(t,n,e){return 0===t?n:1===t?e:{x:B(t,n.x,e.x),y:B(t,n.y,e.y)}}function C(t,n,e){var r=function(t,n,e){return Math.round(B(t,n,e))}(t,n,e);return r<=0?0:r>=255?255:r}function V(t,n,e){return 0===t?n:1===t?e:{r:C(t,n.r,e.r),g:C(t,n.g,e.g),b:C(t,n.b,e.b),a:B(t,null==n.a?1:n.a,null==e.a?1:e.a)}}function G(t,n){for(var e=[],r=0;r<t;r++)e.push(n);return e}function z(t,n){if(--n<=0)return t;var e=(t=Object.assign([],t)).length;do{for(var r=0;r<e;r++)t.push(t[r])}while(--n>0);return t}var Y,$=function(){function t(n){r(this,t),this.list=n,this.length=n.length}return u(t,[{key:"setAttribute",value:function(t,n){for(var e=this.list,r=0;r<this.length;r++)e[r].setAttribute(t,n)}},{key:"removeAttribute",value:function(t){for(var n=this.list,e=0;e<this.length;e++)n[e].removeAttribute(t)}},{key:"style",value:function(t,n){for(var e=this.list,r=0;r<this.length;r++)e[r].style[t]=n}}]),t}(),U=/-./g,Q=function(t,n){return n.toUpperCase()};function H(t){return"function"==typeof t?t:T}function J(t){return t?"function"==typeof t?t:Array.isArray(t)?function(t){var n=arguments.length>1&&void 0!==arguments[1]?arguments[1]:b;if(!Array.isArray(t))return n;switch(t.length){case 1:return k(t[0])||n;case 2:return k(t[0],t[1])||n;case 4:return A(t[0],t[1],t[2],t[3])||n}return n}(t,null):function(t,n){var e=arguments.length>2&&void 0!==arguments[2]?arguments[2]:b;switch(t){case"linear":return b;case"steps":return k(n.steps||1,n.jump||0)||e;case"bezier":case"cubic-bezier":return A(n.x1||0,n.y1||0,n.x2||0,n.y2||0)||e}return e}(t.type,t.value,null):null}function Z(t,n,e){var r=arguments.length>3&&void 0!==arguments[3]&&arguments[3],i=n.length-1;if(t<=n[0].t)return r?[0,0,n[0].v]:n[0].v;if(t>=n[i].t)return r?[i,1,n[i].v]:n[i].v;var u,o=n[0],a=null;for(u=1;u<=i;u++){if(!(t>n[u].t)){a=n[u];break}o=n[u]}return null==a?r?[i,1,n[i].v]:n[i].v:o.t===a.t?r?[u,1,a.v]:a.v:(t=(t-o.t)/(a.t-o.t),o.e&&(t=o.e(t)),r?[u,t,e(t,o.v,a.v)]:e(t,o.v,a.v))}function K(t,n){var e=arguments.length>2&&void 0!==arguments[2]?arguments[2]:null;return t&&t.length?"function"!=typeof n?null:("function"!=typeof e&&(e=null),function(r){var i=Z(r,t,n);return null!=i&&e&&(i=e(i)),i}):null}function W(t,n){return t.t-n.t}function X(t,n,r,i,u){var o,a="@"===r[0],l="#"===r[0],s=Y[r],f=T;switch(a?(o=r.substr(1),r=o.replace(U,Q)):l&&(r=r.substr(1)),e(s)){case"function":if(f=s(i,u,Z,J,r,a,n,t),l)return f;break;case"string":f=K(i,H(s));break;case"object":if((f=K(i,H(s.i),s.f))&&"function"==typeof s.u)return s.u(n,f,r,a,t)}return f?function(t,n,e){if(arguments.length>3&&void 0!==arguments[3]&&arguments[3])return t instanceof $?function(r){return t.style(n,e(r))}:function(r){return t.style[n]=e(r)};if(Array.isArray(n)){var r=n.length;return function(i){var u=e(i);if(null==u)for(var o=0;o<r;o++)t[o].removeAttribute(n);else for(var a=0;a<r;a++)t[a].setAttribute(n,u)}}return function(r){var i=e(r);null==i?t.removeAttribute(n):t.setAttribute(n,i)}}(n,r,f,a):null}function tt(t,n,r,i){if(!i||"object"!==e(i))return null;var u=null,o=null;return Array.isArray(i)?o=function(t){if(!t||!t.length)return null;for(var n=0;n<t.length;n++)t[n].e&&(t[n].e=J(t[n].e));return t.sort(W)}(i):(o=i.keys,u=i.data||null),o?X(t,n,r,o,u):null}function nt(t,n,e){if(!e)return null;var r=[];for(var i in e)if(e.hasOwnProperty(i)){var u=tt(t,n,i,e[i]);u&&r.push(u)}return r.length?r:null}function et(t,n){if(!n.settings.duration||n.settings.duration<0)return null;var e,r,i,u,o,a=function(t,n){if(!n)return null;var e=[];if(Array.isArray(n))for(var r=n.length,i=0;i<r;i++){var u=n[i];if(2===u.length){var o=null;if("string"==typeof u[0])o=t.getElementById(u[0]);else if(Array.isArray(u[0])){o=[];for(var a=0;a<u[0].length;a++)if("string"==typeof u[0][a]){var l=t.getElementById(u[0][a]);l&&o.push(l)}o=o.length?1===o.length?o[0]:new $(o):null}if(o){var s=nt(t,o,u[1]);s&&(e=e.concat(s))}}}else for(var f in n)if(n.hasOwnProperty(f)){var c=t.getElementById(f);if(c){var h=nt(t,c,n[f]);h&&(e=e.concat(h))}}return e.length?e:null}(t,n.elements);return a?(e=a,r=n.settings,i=r.duration,u=e.length,o=null,function(t,n){var a=r.iterations||1/0,l=(r.alternate&&a%2==0)^r.direction>0?i:0,s=t%i,f=1+(t-s)/i;n*=r.direction,r.alternate&&f%2==0&&(n=-n);var c=!1;if(f>a)s=l,c=!0,-1===r.fill&&(s=r.direction>0?0:i);else if(n<0&&(s=i-s),s===o)return!1;o=s;for(var h=0;h<u;h++)e[h](s);return c}):null}function rt(t,n){if(Y=n,!t||!t.root||!Array.isArray(t.animations))return null;var e=function(t){for(var n=document.getElementsByTagName("svg"),e=0;e<n.length;e++)if(n[e].id===t.root&&!n[e].svgatorAnimation)return n[e].svgatorAnimation=!0,n[e];return null}(t);if(!e)return null;var r=t.animations.map((function(t){return et(e,t)})).filter((function(t){return!!t}));return r.length?{svg:e,animations:r,animationSettings:t.animationSettings,options:t.options||void 0}:null}function it(t){var n=arguments.length>1&&void 0!==arguments[1]?arguments[1]:null,e=arguments.length>2&&void 0!==arguments[2]?arguments[2]:Number,r=arguments.length>3&&void 0!==arguments[3]?arguments[3]:"undefined"!=typeof BigInt&&BigInt,i="0x"+(t.replace(/[^0-9a-fA-F]+/g,"")||27);return n&&r&&e.isSafeInteger&&!e.isSafeInteger(+i)?e(r(i))%n+n:+i}function ut(t,n,e){return!t||!e||n>t.length?t:t.substring(0,n)+ut(t.substring(n+1),e,e)}function ot(t){var n=arguments.length>1&&void 0!==arguments[1]?arguments[1]:27;return!t||t%n?t%n:[0,1].includes(n)?n:ot(t/n,n)}function at(t,n,e){if(t&&t.length){var r=it(e),i=ot(r)+5,u=ut(t,ot(r,5),i);return u=u.replace(/\x7c$/g,"==").replace(/\x2f$/g,"="),u=function(t,n,e){var r=+("0x"+t.substring(0,4));t=t.substring(4);for(var i=it(n,r)%r+e%27,u=[],o=0;o<t.length;o+=2)if("|"!==t[o]){var a=+("0x"+t[o]+t[o+1])-i;u.push(a)}else{var l=+("0x"+t.substring(o+1,o+1+4))-i;o+=3,u.push(l)}return String.fromCharCode.apply(String,u)}(u=(u=atob(u)).replace(/[\x41-\x5A]/g,""),n,r),u=JSON.parse(u)}}var lt=[{key:"alternate",def:!1},{key:"fill",def:1},{key:"iterations",def:0},{key:"direction",def:1},{key:"speed",def:1},{key:"fps",def:100}],st=function(){function t(n,e){var i=this,u=arguments.length>2&&void 0!==arguments[2]?arguments[2]:null;r(this,t),this._id=0,this._running=!1,this._rollingBack=!1,this._animations=n,this._settings=e,(!u||u<"2022-05-02")&&delete this._settings.speed,lt.forEach((function(t){i._settings[t.key]=i._settings[t.key]||t.def})),this.duration=e.duration,this.offset=e.offset||0,this.rollbackStartOffset=0}return u(t,[{key:"alternate",get:function(){return this._settings.alternate}},{key:"fill",get:function(){return this._settings.fill}},{key:"iterations",get:function(){return this._settings.iterations}},{key:"direction",get:function(){return this._settings.direction}},{key:"speed",get:function(){return this._settings.speed}},{key:"fps",get:function(){return this._settings.fps}},{key:"maxFiniteDuration",get:function(){return this.iterations>0?this.iterations*this.duration:this.duration}},{key:"_apply",value:function(t){for(var n=arguments.length>1&&void 0!==arguments[1]?arguments[1]:{},e=this._animations,r=e.length,i=0,u=0;u<r;u++)n[u]?i++:(n[u]=e[u](t,1),n[u]&&i++);return i}},{key:"_rollback",value:function(t){var n=this,e=1/0,r=null;this.rollbackStartOffset=t,this._rollingBack=!0,this._running=!0;this._id=window.requestAnimationFrame((function i(u){if(n._rollingBack){null==r&&(r=u);var o=Math.round(t-(u-r)*n.speed);if(o>n.duration&&e!==1/0){var a=!!n.alternate&&o/n.duration%2>1,l=o%n.duration;o=(l+=a?n.duration:0)||n.duration}var s=(n.fps?1e3/n.fps:0)*n.speed,f=Math.max(0,o);f<=e-s&&(n.offset=f,e=f,n._apply(f));var c=n.iterations>0&&-1===n.fill&&o>=n.maxFiniteDuration;(o<=0||n.offset<o||c)&&n.stop(),n._id=window.requestAnimationFrame(i)}}))}},{key:"_start",value:function(){var t=this,n=arguments.length>0&&void 0!==arguments[0]?arguments[0]:0,e=-1/0,r=null,i={};this._running=!0;var u=function u(o){null==r&&(r=o);var a=Math.round((o-r)*t.speed+n),l=(t.fps?1e3/t.fps:0)*t.speed;if(a>=e+l&&!t._rollingBack&&(t.offset=a,e=a,t._apply(a,i)===t._animations.length))return void t.pause(!0);t._id=window.requestAnimationFrame(u)};this._id=window.requestAnimationFrame(u)}},{key:"_pause",value:function(){this._id&&window.cancelAnimationFrame(this._id),this._running=!1}},{key:"play",value:function(){if(!this._running)return this._rollingBack?this._rollback(this.offset):this._start(this.offset)}},{key:"stop",value:function(){this._pause(),this.offset=0,this.rollbackStartOffset=0,this._rollingBack=!1,this._apply(0)}},{key:"reachedToEnd",value:function(){return this.iterations>0&&this.offset>=this.iterations*this.duration}},{key:"restart",value:function(){var t=arguments.length>0&&void 0!==arguments[0]&&arguments[0];this.stop(t),this.play(t)}},{key:"pause",value:function(){this._pause()}},{key:"reverse",value:function(){this.direction=-this.direction}}],[{key:"build",value:function(t,n){delete t.animationSettings,t.options=at(t.options,t.root,"5c7f360c"),t.animations.map((function(n){n.settings=at(n.s,t.root,"5c7f360c"),delete n.s,t.animationSettings||(t.animationSettings=n.settings)}));var e=t.version;if(!(t=rt(t,n)))return null;var r=t.options||{},i=new this(t.animations,t.animationSettings,e);return{el:t.svg,options:r,player:i}}},{key:"push",value:function(t){return this.build(t)}},{key:"init",value:function(){var t=this,n=window.__SVGATOR_PLAYER__&&window.__SVGATOR_PLAYER__["5c7f360c"];Array.isArray(n)&&n.splice(0).forEach((function(n){return t.build(n)}))}}]),t}();function ft(t){return d(t)+""}function ct(t){var n=arguments.length>1&&void 0!==arguments[1]?arguments[1]:" ";return t&&t.length?t.map(ft).join(n):""}function ht(t){if(!t)return"transparent";if(null==t.a||t.a>=1){var n=function(t){return 1===(t=parseInt(t).toString(16)).length?"0"+t:t},e=function(t){return t.charAt(0)===t.charAt(1)},r=n(t.r),i=n(t.g),u=n(t.b);return e(r)&&e(i)&&e(u)&&(r=r.charAt(0),i=i.charAt(0),u=u.charAt(0)),"#"+r+i+u}return"rgba("+t.r+","+t.g+","+t.b+","+t.a+")"}function vt(t){return t?"url(#"+t+")":"none"}!function(){for(var t=0,n=["ms","moz","webkit","o"],e=0;e<n.length&&!window.requestAnimationFrame;++e)window.requestAnimationFrame=window[n[e]+"RequestAnimationFrame"],window.cancelAnimationFrame=window[n[e]+"CancelAnimationFrame"]||window[n[e]+"CancelRequestAnimationFrame"];window.requestAnimationFrame||(window.requestAnimationFrame=function(n){var e=Date.now(),r=Math.max(0,16-(e-t)),i=window.setTimeout((function(){n(e+r)}),r);return t=e+r,i},window.cancelAnimationFrame=window.clearTimeout)}();var yt={f:null,i:function(t,n,e){return 0===t?n:1===t?e:{x:q(t,n.x,e.x),y:q(t,n.y,e.y)}},u:function(t,n){return function(e){var r=n(e);t.setAttribute("rx",ft(r.x)),t.setAttribute("ry",ft(r.y))}}},gt={f:null,i:function(t,n,e){return 0===t?n:1===t?e:{width:q(t,n.width,e.width),height:q(t,n.height,e.height)}},u:function(t,n){return function(e){var r=n(e);t.setAttribute("width",ft(r.width)),t.setAttribute("height",ft(r.height))}}};Object.freeze({M:2,L:2,Z:0,H:1,V:1,C:6,Q:4,T:2,S:4,A:7});var dt={},pt=null;function mt(t){var n=function(){if(pt)return pt;if("object"!==("undefined"==typeof document?"undefined":e(document))||!document.createElementNS)return{};var t=document.createElementNS("http://www.w3.org/2000/svg","svg");return t&&t.style?(t.style.position="absolute",t.style.opacity="0.01",t.style.zIndex="-9999",t.style.left="-9999px",t.style.width="1px",t.style.height="1px",pt={svg:t}):{}}().svg;if(!n)return function(t){return null};var r=document.createElementNS(n.namespaceURI,"path");r.setAttributeNS(null,"d",t),r.setAttributeNS(null,"fill","none"),r.setAttributeNS(null,"stroke","none"),n.appendChild(r);var i=r.getTotalLength();return function(t){var n=r.getPointAtLength(i*t);return{x:n.x,y:n.y}}}function bt(t){return dt[t]?dt[t]:dt[t]=mt(t)}function wt(t,n,e,r){if(!t||!r)return!1;var i=["M",t.x,t.y];if(n&&e&&(i.push("C"),i.push(n.x),i.push(n.y),i.push(e.x),i.push(e.y)),n?!e:e){var u=n||e;i.push("Q"),i.push(u.x),i.push(u.y)}return n||e||i.push("L"),i.push(r.x),i.push(r.y),i.join(" ")}function At(t,n,e,r){var i=arguments.length>4&&void 0!==arguments[4]?arguments[4]:1,u=wt(t,n,e,r),o=bt(u);try{return o(i)}catch(t){return null}}function _t(t,n,e){return t+(n-t)*e}function xt(t,n,e){var r=arguments.length>3&&void 0!==arguments[3]&&arguments[3],i={x:_t(t.x,n.x,e),y:_t(t.y,n.y,e)};return r&&(i.a=kt(t,n)),i}function kt(t,n){return Math.atan2(n.y-t.y,n.x-t.x)}function St(t,n,e,r){var i=1-r;return i*i*t+2*i*r*n+r*r*e}function Ot(t,n,e,r){return 2*(1-r)*(n-t)+2*r*(e-n)}function jt(t,n,e,r){var i=arguments.length>4&&void 0!==arguments[4]&&arguments[4],u=At(t,n,null,e,r);return u||(u={x:St(t.x,n.x,e.x,r),y:St(t.y,n.y,e.y,r)}),i&&(u.a=Et(t,n,e,r)),u}function Et(t,n,e,r){return Math.atan2(Ot(t.y,n.y,e.y,r),Ot(t.x,n.x,e.x,r))}function Mt(t,n,e,r,i){var u=i*i;return i*u*(r-t+3*(n-e))+3*u*(t+e-2*n)+3*i*(n-t)+t}function Pt(t,n,e,r,i){var u=1-i;return 3*(u*u*(n-t)+2*u*i*(e-n)+i*i*(r-e))}function It(t,n,e,r,i){var u=arguments.length>5&&void 0!==arguments[5]&&arguments[5],o=At(t,n,e,r,i);return o||(o={x:Mt(t.x,n.x,e.x,r.x,i),y:Mt(t.y,n.y,e.y,r.y,i)}),u&&(o.a=Rt(t,n,e,r,i)),o}function Rt(t,n,e,r,i){return Math.atan2(Pt(t.y,n.y,e.y,r.y,i),Pt(t.x,n.x,e.x,r.x,i))}function Ft(t,n,e){var r=arguments.length>3&&void 0!==arguments[3]&&arguments[3];if(Tt(n)){if(Bt(e))return jt(n,e.start,e,t,r)}else if(Tt(e)){if(qt(n))return jt(n,n.end,e,t,r)}else{if(qt(n))return Bt(e)?It(n,n.end,e.start,e,t,r):jt(n,n.end,e,t,r);if(Bt(e))return jt(n,e.start,e,t,r)}return xt(n,e,t,r)}function Nt(t,n,e){var r=Ft(t,n,e,!0);return r.a=function(t){return arguments.length>1&&void 0!==arguments[1]&&arguments[1]?t+Math.PI:t}(r.a)/m,r}function Tt(t){return!t.type||"corner"===t.type}function Bt(t){return null!=t.start&&!Tt(t)}function qt(t){return null!=t.end&&!Tt(t)}var Dt=new N;var Lt={f:ft,i:B},Ct={f:ft,i:D};function Vt(t,n,e){return t.map((function(t){return function(t,n,e){var r=t.v;if(!r||"g"!==r.t||r.s||!r.v||!r.r)return t;var i=e.getElementById(r.r),u=i&&i.querySelectorAll("stop")||[];return r.s=r.v.map((function(t,n){var e=u[n]&&u[n].getAttribute("offset");return{c:t,o:e=d(parseInt(e)/100)}})),delete r.v,t}(t,0,e)}))}var Gt={gt:"gradientTransform",c:{x:"cx",y:"cy"},rd:"r",f:{x:"x1",y:"y1"},to:{x:"x2",y:"y2"}};function zt(t,n,r,i,u,o,a,l){return Vt(t,0,l),n=function(t,n,e){for(var r,i,u,o=t.length-1,a={},l=0;l<=o;l++)(r=t[l]).e&&(r.e=n(r.e)),r.v&&"g"===(i=r.v).t&&i.r&&(u=e.getElementById(i.r))&&(a[i.r]={e:u,s:u.querySelectorAll("stop")});return a}(t,i,l),function(i){var u=r(i,t,Yt);if(!u)return"none";if("c"===u.t)return ht(u.v);if("g"===u.t){if(!n[u.r])return vt(u.r);var o=n[u.r];return function(t,n){for(var e=t.s,r=e.length;r<n.length;r++){var i=e[e.length-1].cloneNode();i.id=Qt(i.id),t.e.appendChild(i),e=t.s=t.e.querySelectorAll("stop")}for(var u=0,o=e.length,a=n.length-1;u<o;u++)e[u].setAttribute("stop-color",ht(n[Math.min(u,a)].c)),e[u].setAttribute("offset",n[Math.min(u,a)].o)}(o,u.s),Object.keys(Gt).forEach((function(t){if(void 0!==u[t])if("object"!==e(Gt[t])){var n,r="gt"===t?(n=u[t],Array.isArray(n)?"matrix("+n.join(" ")+")":""):u[t],i=Gt[t];o.e.setAttribute(i,r)}else Object.keys(Gt[t]).forEach((function(n){if(void 0!==u[t][n]){var e=u[t][n],r=Gt[t][n];o.e.setAttribute(r,e)}}))})),vt(u.r)}return"none"}}function Yt(t,e,r){if(0===t)return e;if(1===t)return r;if(e&&r){var i=e.t;if(i===r.t)switch(e.t){case"c":return{t:i,v:V(t,e.v,r.v)};case"g":if(e.r===r.r){var u={t:i,s:$t(t,e.s,r.s),r:e.r};return e.gt&&r.gt&&(u.gt=function(t,n,e){var r=n.length;if(r!==e.length)return T(t,n,e);for(var i=new Array(r),u=0;u<r;u++)i[u]=B(t,n[u],e[u]);return i}(t,e.gt,r.gt)),e.c?(u.c=L(t,e.c,r.c),u.rd=q(t,e.rd,r.rd)):e.f&&(u.f=L(t,e.f,r.f),u.to=L(t,e.to,r.to)),u}}if("c"===e.t&&"g"===r.t||"c"===r.t&&"g"===e.t){var o="c"===e.t?e:r,a="g"===e.t?n({},e):n({},r),l=a.s.map((function(t){return{c:o.v,o:t.o}}));return a.s="c"===e.t?$t(t,l,a.s):$t(t,a.s,l),a}}return T(t,e,r)}function $t(t,n,e){if(n.length===e.length)return n.map((function(n,r){return Ut(t,n,e[r])}));for(var r=Math.max(n.length,e.length),i=[],u=0;u<r;u++){var o=Ut(t,n[Math.min(u,n.length-1)],e[Math.min(u,e.length-1)]);i.push(o)}return i}function Ut(t,n,e){return{o:D(t,n.o,e.o||0),c:V(t,n.c,e.c||{})}}function Qt(t){return t.replace(/-fill-([0-9]+)$/,(function(t,n){return"-fill-"+(+n+1)}))}var Ht={fill:zt,"fill-opacity":Ct,stroke:zt,"stroke-opacity":Ct,"stroke-width":Lt,"stroke-dashoffset":{f:ft,i:B},"stroke-dasharray":{f:function(t){var n=arguments.length>1&&void 0!==arguments[1]?arguments[1]:" ";return t&&t.length>0&&(t=t.map((function(t){return d(t,4)}))),ct(t,n)},i:function(t,n,e){var r,i,u,o=n.length,a=e.length;if(o!==a)if(0===o)n=G(o=a,0);else if(0===a)a=o,e=G(o,0);else{var l=(u=(r=o)*(i=a)/function(t,n){for(var e;n;)e=n,n=t%n,t=e;return t||1}(r,i))<0?-u:u;n=z(n,Math.floor(l/o)),e=z(e,Math.floor(l/a)),o=a=l}for(var s=[],f=0;f<o;f++)s.push(d(q(t,n[f],e[f])));return s}},opacity:Ct,transform:function(t,n,r,i){if(!(t=function(t,n){if(!t||"object"!==e(t))return null;var r=!1;for(var i in t)t.hasOwnProperty(i)&&(t[i]&&t[i].length?(t[i].forEach((function(t){t.e&&(t.e=n(t.e))})),r=!0):delete t[i]);return r?t:null}(t,i)))return null;var u=function(e,i,u){var o=arguments.length>3&&void 0!==arguments[3]?arguments[3]:null;return t[e]?r(i,t[e],u):n&&n[e]?n[e]:o};return n&&n.a&&t.o?function(n){var e=r(n,t.o,Nt);return Dt.recomposeSelf(e,u("r",n,B,0)+e.a,u("k",n,L),u("s",n,L),u("t",n,L)).toString()}:function(t){return Dt.recomposeSelf(u("o",t,Ft,null),u("r",t,B,0),u("k",t,L),u("s",t,L),u("t",t,L)).toString()}},r:Lt,"#size":gt,"#radius":yt,_:function(t,n){if(Array.isArray(t))for(var e=0;e<t.length;e++)this[t[e]]=n;else this[t]=n}},Jt=function(t){!function(t,n){if("function"!=typeof n&&null!==n)throw new TypeError("Super expression must either be null or a function");t.prototype=Object.create(n&&n.prototype,{constructor:{value:t,writable:!0,configurable:!0}}),n&&l(t,n)}(o,t);var n,e,i=(n=o,e=s(),function(){var t,r=a(n);if(e){var i=a(this).constructor;t=Reflect.construct(r,arguments,i)}else t=r.apply(this,arguments);return c(this,t)});function o(){return r(this,o),i.apply(this,arguments)}return u(o,null,[{key:"build",value:function(t){var n=h(a(o),"build",this).call(this,t,Ht);if(!n)return null;n.el,n.options,function(t,n,e){t.play()}(n.player)}}]),o}(st);return Jt.init(),Jt}));
(function(s,i,o,w,d,a,b){w[o]=w[o]||{};w[o][s]=w[o][s]||[];w[o][s].push(i);})('5c7f360c',{"root":"e1DMnA0TWOZ1","version":"2022-05-04","animations":[{"elements":{"e1DMnA0TWOZ55":{"transform":{"data":{"t":{"x":-355.28774,"y":-269.263463}},"keys":{"o":[{"t":0,"v":{"x":710.31161,"y":271.43705,"type":"cusp","end":{"x":705.79508,"y":268.37494}}},{"t":160,"v":{"x":676.64381,"y":266.8726,"type":"cusp","start":{"x":682.739037,"y":266.526521},"end":{"x":667.14644,"y":267.2488}}},{"t":390,"v":{"x":657.68771,"y":268.24705,"type":"cusp","end":{"x":648.24232,"y":269.24669}}},{"t":590,"v":{"x":638.87639,"y":270.86658,"type":"cusp","end":{"x":633.285953,"y":271.736983}}},{"t":760,"v":{"x":622.31101,"y":274.4925,"type":"cusp","start":{"x":627.75387,"y":272.947876},"end":{"x":617.158972,"y":275.918315}}},{"t":920,"v":{"x":607.9861,"y":281.41,"type":"cusp","start":{"x":612.306329,"y":278.261657},"end":{"x":604.193689,"y":284.262187}}},{"t":1060,"v":{"x":599.56825,"y":292.54769,"type":"cusp","start":{"x":601.277286,"y":288.120891},"end":{"x":597.890536,"y":296.699415}}},{"t":1200,"v":{"x":598.75543,"y":305.61112,"type":"cusp","start":{"x":597.605313,"y":301.283444},"end":{"x":599.36827,"y":307.713313}}},{"t":1270,"v":{"x":601.83471,"y":311.33189,"type":"cusp","start":{"x":600.417524,"y":309.662646},"end":{"x":603.47284,"y":313.163234}}},{"t":1340,"v":{"x":607.57162,"y":315.87399,"type":"cusp","start":{"x":605.413355,"y":314.699603},"end":{"x":612.05208,"y":318.43247}}},{"t":1500,"v":{"x":621.18096,"y":323.24606,"type":"cusp","start":{"x":617.12844,"y":319.97058},"end":{"x":622.249546,"y":324.102855}}},{"t":1540,"v":{"x":624.0865,"y":326.13496,"type":"cusp","start":{"x":623.223582,"y":325.071313},"end":{"x":624.672563,"y":326.957903}}},{"t":1570,"v":{"x":626.4205,"y":327.97096,"type":"cusp","start":{"x":625.482689,"y":327.595174},"end":{"x":628.23762,"y":328.605982}}},{"t":1630,"v":{"x":631.54292,"y":326.65221,"type":"cusp","start":{"x":630.258345,"y":328.085753},"end":{"x":632.35466,"y":325.541633}}},{"t":1670,"v":{"x":633.55877,"y":323.06792,"type":"cusp","start":{"x":633.031367,"y":324.338411}}},{"t":1720,"v":{"x":635.6966,"y":318.94347,"type":"cusp","end":{"x":635.8396,"y":318.582657}}},{"t":1730,"v":{"x":636.28585,"y":317.81717,"type":"cusp","start":{"x":636.25148,"y":317.83926},"end":{"x":636.462681,"y":317.729198}}},{"t":1740,"v":{"x":636.83785,"y":317.60558,"type":"cusp","start":{"x":636.647523,"y":317.658345},"end":{"x":639.80413,"y":316.47471}}},{"t":1800,"v":{"x":642.79685,"y":315.41458,"type":"cusp","end":{"x":650.16107,"y":312.78998}}},{"t":2040,"v":{"x":665.18471,"y":308.41146,"type":"cusp","start":{"x":657.61405,"y":310.37077},"end":{"x":669.080443,"y":307.366437}}},{"t":2160,"v":{"x":677.01943,"y":305.93546,"type":"cusp","start":{"x":673.031503,"y":306.539817},"end":{"x":682.18455,"y":305.19976}}},{"t":2320,"v":{"x":692.61657,"y":304.78229,"type":"cusp","start":{"x":687.42798,"y":305.28519},"end":{"x":698.20294,"y":304.24083}}},{"t":2500,"v":{"x":708.75773,"y":300.03405,"type":"cusp","start":{"x":703.96712,"y":303.11017},"end":{"x":712.718972,"y":297.626907}}},{"t":2640,"v":{"x":717.4348,"y":289.64832,"type":"cusp","start":{"x":715.770485,"y":293.9745},"end":{"x":718.156274,"y":287.58657}}},{"t":2700,"v":{"x":718.15857,"y":283.21815,"type":"cusp","start":{"x":718.403664,"y":285.388695},"end":{"x":717.53619,"y":278.30718}}},{"t":2850,"v":{"x":710.31161,"y":271.43705,"type":"cusp","start":{"x":714.32745,"y":274.15969}}}]}}}},"s":"MUDA1ZGRlODVjN2Q4ZDPVjNENkN2NjZDJkMTgU1OWQ5NjkzOTM5MzhmGODVjN2NjZDVjOGM2ZRDdjY2QyZDFHODVMOWTQ5NDhmODVjY2Q3YzhJkNWM0ZDdZY2NkMmQxVZDY4NUo5ZDk0OGY4NGWM5Y2NjZmNmODU5ZDMk0OGY4NWM0Y2ZkN2MR4ZDVkMWM0T2Q3Yzg4MNTlkYzljNGNmZDZBYQzg4Zjg1ZDZkM2M4YzPhjNzg1OWQ5NDhmODVOjOWQzRGQ2ODU5ZDk0IOTM5M2Uw"}],"options":"MTDAxMDg4MmY4MDgxNmSU3ZjgxWTJmNDcyZjcK5N2M2ZTcxMmY4YQ|"},'__SVGATOR_PLAYER__',window,document)
]]></script>
</svg>
